# xmcd
# Copyright (C) 1995-1998 Ti Kan
#
# Track frame offsets:
#       150
#       39192
#       62163
#       77874
#       96502
#       113567
#
# Disc length: 1757 seconds
#
# Revision: 4
# Processed by: cddbd v1.5.2PL0 Copyright (c) Steve Scherf et al.
# Submitted via: CD-Import v1.0
#
DISCID=4506db06
DTITLE=Gipsy Rufina - 
DYEAR=1900
DGENRE=
TTITLE0=Medley Live
TTITLE1=Bufalo Bill
TTITLE2=Tu Vuo Fa L'americano
TTITLE3=Salvami
TTITLE4=Seamonster
TTITLE5=Scientist
EXTD=
EXTT0=
EXTT1=
EXTT2=
EXTT3=
EXTT4=
EXTT5=
PLAYORDER=
